<svg xmlns="http://www.w3.org/2000/svg" viewBox="0 0 77.47 22.75"><defs><style>.cls-1{fill:#dd052b}.cls-2{fill:#1d1d1b}</style></defs><g id="Warstwa_2" data-name="Warstwa 2"><g id="Layer_1" data-name="Layer 1"><path class="cls-1" d="M0 .6h5.51v21.55H0V.6zM7.79.6h16.66V5H13.3v3.96h11.12v4.32H13.3v4.46h11.21v4.41H7.79V.6zM26.58.6h5.55v16.87h10.13v4.68H26.58V.6zM44.33 4.97h-6.18V.6h17.89v4.37h-6.2v17.18h-5.51V4.97zM61.58 15c.06 2.45 1.43 3.71 4.07 3.71 2.31 0 3.54-.81 3.54-2.13a1.63 1.63 0 0 0-.84-1.52c-1.29-.66-3.75-1.08-6.89-2.34s-4.74-3.3-4.74-6c0-4 3.21-6.74 8.6-6.74s8.45 2.82 8.45 7.1h-5.18c-.24-2-1.41-2.93-3.63-2.93-1.86 0-3 .87-3 1.94 0 1.62 1.68 2 5.07 3.06 2.49.81 4.29 1.38 5.34 2.22a5.65 5.65 0 0 1 2.12 4.55c0 4.2-3.32 6.81-9.38 6.81-5.6 0-8.51-2.55-8.84-7.76z"/><path class="cls-2" d="M73.5.98h-.72V.55h1.93v.43H74v1.99h-.5V.98zM75.03.55h.74l.48 1.84.48-1.84h.74v2.42H77V1.01l-.49 1.96H76l-.5-1.96v1.96h-.47V.55z"/></g></g></svg>